name D:\school\WTK\thesis\model\3dpredictsim\Results\MidTarsalJoint\Fal_s1_bCst_PF_Natali2010_ls150_MT_k50_MTP_T5_ig23.mot
datacolumns 128
datarows 4
range 1.21337075 1.24977187
endheader
time	pelvis_tilt	pelvis_list	pelvis_rotation	pelvis_tx	pelvis_ty	pelvis_tz	hip_flexion_l	hip_adduction_l	hip_rotation_l	hip_flexion_r	hip_adduction_r	hip_rotation_r	knee_angle_l	knee_angle_r	ankle_angle_l	ankle_angle_r	subtalar_angle_l	subtalar_angle_r	mtj_angle_l	mtj_angle_r	mtp_angle_l	mtp_angle_r	lumbar_extension	lumbar_bending	lumbar_rotation	arm_flex_l	arm_add_l	arm_rot_l	arm_flex_r	arm_add_r	arm_rot_r	elbow_flex_l	elbow_flex_r	pro_sup_l	pro_sup_r	glut_med1_l/activation	glut_med2_l/activation	glut_med3_l/activation	glut_min1_l/activation	glut_min2_l/activation	glut_min3_l/activation	semimem_l/activation	semiten_l/activation	bifemlh_l/activation	bifemsh_l/activation	sar_l/activation	add_long_l/activation	add_brev_l/activation	add_mag1_l/activation	add_mag2_l/activation	add_mag3_l/activation	tfl_l/activation	pect_l/activation	grac_l/activation	glut_max1_l/activation	glut_max2_l/activation	glut_max3_l/activation	iliacus_l/activation	psoas_l/activation	quad_fem_l/activation	gem_l/activation	peri_l/activation	rect_fem_l/activation	vas_med_l/activation	vas_int_l/activation	vas_lat_l/activation	med_gas_l/activation	lat_gas_l/activation	soleus_l/activation	tib_post_l/activation	flex_dig_l/activation	flex_hal_l/activation	tib_ant_l/activation	per_brev_l/activation	per_long_l/activation	per_tert_l/activation	ext_dig_l/activation	ext_hal_l/activation	ercspn_l/activation	intobl_l/activation	extobl_l/activation	glut_med1_r/activation	glut_med2_r/activation	glut_med3_r/activation	glut_min1_r/activation	glut_min2_r/activation	glut_min3_r/activation	semimem_r/activation	semiten_r/activation	bifemlh_r/activation	bifemsh_r/activation	sar_r/activation	add_long_r/activation	add_brev_r/activation	add_mag1_r/activation	add_mag2_r/activation	add_mag3_r/activation	tfl_r/activation	pect_r/activation	grac_r/activation	glut_max1_r/activation	glut_max2_r/activation	glut_max3_r/activation	iliacus_r/activation	psoas_r/activation	quad_fem_r/activation	gem_r/activation	peri_r/activation	rect_fem_r/activation	vas_med_r/activation	vas_int_r/activation	vas_lat_r/activation	med_gas_r/activation	lat_gas_r/activation	soleus_r/activation	tib_post_r/activation	flex_dig_r/activation	flex_hal_r/activation	tib_ant_r/activation	per_brev_r/activation	per_long_r/activation	per_tert_r/activation	ext_dig_r/activation	ext_hal_r/activation	ercspn_r/activation	intobl_r/activation	extobl_r/activation	
          1.21337075	         -2.92840822	         -2.89933263	          6.85446334	          1.51671343	          0.92132540	         -0.00084108	        -14.75640110	         -2.59601889	          7.20515553	         27.80201519	          4.11429013	         -1.05797910	        -14.80891383	         -7.71554204	         -9.53072828	          4.32994035	         15.34740176	         -5.28647580	          9.51636046	         -0.67020168	          2.92196983	          1.78709340	         -1.83311123	          1.03625919	         -2.71059294	          4.20958023	        -13.46633128	         15.88315852	         -8.71366085	        -13.46554612	          3.42947664	         45.27555496	         18.40659419	         86.51662706	         86.51662706	          0.20561954	          0.09238751	          0.05451997	          0.24842172	          0.17246127	          0.10449022	          0.05000072	          0.05000009	          0.05000007	          0.05000055	          0.10434086	          0.09062402	          0.05898233	          0.05000046	          0.05000058	          0.05000015	          0.28308562	          0.10181722	          0.05001208	          0.05000060	          0.05000032	          0.05000018	          0.36648234	          0.50061314	          0.05000017	          0.05000060	          0.06063458	          0.32999895	          0.05000037	          0.05000038	          0.10282549	          0.22037472	          0.30660975	          0.32008290	          0.18817929	          0.12950534	          0.19153896	          0.05000002	          0.13224379	          0.21553290	          0.05000013	          0.05000003	          0.05000010	          0.05000002	          0.05000007	          0.07318525	          0.06011140	          0.06011134	          0.05000011	          0.06011144	          0.06011142	          0.05448943	          0.16676068	          0.11719989	          0.17179999	          0.05193551	          0.05000030	          0.15915164	          0.33864216	          0.11167151	          0.26416629	          0.11556312	          0.05000007	          0.08383264	          0.16155232	          0.05537452	          0.07080038	          0.16659447	          0.06011142	          0.05403850	          0.20305355	          0.32222779	          0.14095295	          0.05095755	          0.13108440	          0.12889294	          0.10987218	          0.07825744	          0.08118656	          0.06639802	          0.07226769	          0.05000018	          0.05000031	          0.46635579	          0.26513593	          0.17604435	          0.16789266	          0.47986721	          0.24922217	          0.05000002	          0.10940060	          0.09783202	
          1.22550445	         -2.92994059	         -2.96991311	          7.09357409	          1.53578966	          0.92029624	         -0.00067124	        -14.68361935	         -2.91130272	          6.97995137	         26.89891670	          4.57079921	         -0.76415163	        -16.54556570	         -7.96798646	        -10.15250095	          3.67210358	         16.16551390	         -5.65722666	          7.16459358	         -0.78425779	          5.44443098	          1.74483606	         -1.59083769	          1.23038897	         -2.80712374	          3.74399990	        -13.49445117	         16.18155278	         -9.74438207	        -13.45023986	          3.30572083	         46.45790996	         18.04154509	         86.51662706	         86.51662706	          0.17103205	          0.07684694	          0.06011159	          0.20663445	          0.14345140	          0.08691384	          0.05000132	          0.05000025	          0.05000034	          0.05000005	          0.08678965	          0.17555563	          0.05000146	          0.07186803	          0.06011197	          0.06011212	          0.23546746	          0.08469070	          0.05000057	          0.06011125	          0.06011187	          0.06011186	          0.30483590	          0.44788133	          0.06011204	          0.06011243	          0.05043527	          0.27448939	          0.12557554	          0.12557550	          0.10453774	          0.18330520	          0.25503453	          0.26624133	          0.15652542	          0.10772112	          0.15931998	          0.08997044	          0.12462436	          0.23000610	          0.05000016	          0.09805361	          0.05000077	          0.07397557	          0.07226758	          0.07226844	          0.05000000	          0.05000002	          0.12362612	          0.05000003	          0.05000003	          0.05000004	          0.13870976	          0.09748565	          0.14290131	          0.05681764	          0.05000135	          0.13238059	          0.33714057	          0.36824001	          0.25349947	          0.12329495	          0.05000017	          0.08684070	          0.17645388	          0.08854956	          0.12256552	          0.13917497	          0.05000008	          0.05000015	          0.48773984	          0.26802545	          0.11724311	          0.05000015	          0.10903473	          0.10721192	          0.09139061	          0.07226741	          0.07226757	          0.06526663	          0.06011148	          0.05008622	          0.06010242	          0.51398321	          0.30368195	          0.22543216	          0.13965127	          0.46643221	          0.20730028	          0.05000000	          0.09099818	          0.08137557	
          1.23763816	         -2.92442522	         -3.04622601	          7.29110957	          1.55517034	          0.91906946	         -0.00054462	        -14.57420158	         -3.21559404	          6.74819593	         25.88902009	          4.88593488	         -0.45400623	        -18.33298240	         -8.28600915	        -10.79514586	          3.12298289	         16.86199890	         -6.04753825	          4.48227078	         -0.95464404	          8.32086169	          1.79170357	         -1.32931575	          1.43850320	         -2.88694775	          3.19274785	        -13.52193309	         16.39289198	        -10.77113821	        -13.45447021	          3.27632260	         47.61546000	         17.66773299	         86.51662706	         86.51662706	          0.33109997	          0.06392048	          0.05000021	          0.26567920	          0.11932145	          0.07229407	          0.05000077	          0.05000007	          0.05000006	          0.05000017	          0.07226732	          0.14602523	          0.05000067	          0.05977910	          0.05000070	          0.05000067	          0.19585926	          0.07227530	          0.05000048	          0.05000104	          0.05000076	          0.05000047	          0.25355911	          0.40447428	          0.05000055	          0.05000108	          0.05000055	          0.22831717	          0.10445233	          0.10445230	          0.08695332	          0.15247119	          0.21213484	          0.22145652	          0.13019608	          0.08960125	          0.13252059	          0.16631269	          0.17670200	          0.19131651	          0.22186453	          0.17741135	          0.05000033	          0.07392352	          0.06011136	          0.06011208	          0.28970033	          0.30787047	          0.33729204	          0.47482268	          0.30475975	          0.22062107	          0.12091684	          0.08111292	          0.12081632	          0.05000068	          0.05000044	          0.11011269	          0.28042973	          0.30629794	          0.21085823	          0.14125274	          0.05000020	          0.07223342	          0.14677242	          0.18942543	          0.15281529	          0.11576438	          0.05000026	          0.05000013	          0.40569649	          0.22294059	          0.25470466	          0.05000006	          0.09069497	          0.08917904	          0.07601836	          0.06011122	          0.06011137	          0.05428806	          0.05000010	          0.05000020	          0.05000027	          0.59912229	          0.37848392	          0.18751207	          0.44458842	          0.54441213	          0.28261410	          0.06802769	          0.10445226	          0.06768728	
          1.24977187	         -2.91473204	         -3.11778695	          7.44603066	          1.57454112	          0.91775626	         -0.00039105	        -14.36356856	         -3.49414619	          6.53832514	         24.88536471	          5.16805650	         -0.14874333	        -20.25411382	         -8.60400426	        -11.49487323	          2.53406780	         17.44203562	         -6.45606333	          1.66930204	         -0.86380927	         11.15619757	          1.82607521	         -1.08018743	          1.64662703	         -2.95287240	          2.61698313	        -13.55736618	         16.55031610	        -11.72703617	        -13.46577899	          3.34841306	         48.70153014	         17.24971733	         86.51662706	         86.51662706	          0.27540532	          0.05316841	          0.05000018	          0.22098906	          0.09925031	          0.06013347	          0.05000180	          0.05000025	          0.05000032	          0.05000010	          0.06011129	          0.12157536	          0.10396783	          0.16455411	          0.05673379	          0.12628839	          0.16291355	          0.06011813	          0.05000085	          0.05000303	          0.05000158	          0.05000175	          0.21090762	          0.33643757	          0.05000053	          0.05000129	          0.05000019	          0.18991164	          0.08688228	          0.08688225	          0.07232679	          0.12682381	          0.17645137	          0.18420503	          0.10829565	          0.07452937	          0.11022918	          0.25223123	          0.14697877	          0.15913492	          0.40347401	          0.21393995	          0.17118725	          0.09844238	          0.05000001	          0.05000055	          0.41409585	          0.42740433	          0.45158055	          0.39495223	          0.25349599	          0.31544280	          0.10102437	          0.09693469	          0.10390414	          0.05000067	          0.05000032	          0.09159051	          0.23325830	          0.25477532	          0.18116870	          0.17089108	          0.05000018	          0.06008341	          0.12208376	          0.27370960	          0.20904372	          0.16837647	          0.05000005	          0.05000006	          0.33745378	          0.18543950	          0.21187131	          0.05000005	          0.14397809	          0.15033435	          0.10474270	          0.05000001	          0.05000002	          0.05000000	          0.05000001	          0.05000006	          0.05000005	          0.66574122	          0.31481937	          0.15979098	          0.64957583	          0.59765212	          0.38610904	          0.08719818	          0.08688221	          0.05630152	
